<svg xmlns="http://www.w3.org/2000/svg">

  <!-- стрелка для кнопки влево  -->
  <symbol id="arrow-to-left" viewBox="0 0 18 12" fill="none">
    <path d="M5.28571 2L1 6M1 6L5.28571 10M1 6L17 6" stroke="currentColor" stroke-width="2" stroke-linecap="square"
      stroke-linejoin="round" />
  </symbol>

  <!-- стрелка для кнопки вправо белая -->
  <symbol id="arrow-to-right-white" viewBox="0 0 17 10" fill="none">
    <path d="M11.7143 1L16 5M16 5L11.7143 9M16 5L-4.76995e-08 5" stroke="currentColor" stroke-width="2"
      stroke-linejoin="round" />
  </symbol>

  <!-- телефонная трубка  -->
  <symbol id="phone" viewBox="0 0 14 14" fill="none">
    <path opacity="0.7"
      d="M4.39194 9.60768C7.96046 13.1762 11.3694 13.9313 12.6273 14C13.4313 12.8221 13.771 11.8496 14 10.9804C13.1308 10.1341 11.8652 9.27031 10.706 8.78426L9.3332 10.157C8.86423 10.0312 7.57767 9.49936 6.03916 7.96085C4.50103 6.42272 3.96878 5.13577 3.84299 4.6668L5.21574 3.29405C4.72969 2.13444 3.8659 0.869225 3.01958 0C2.15035 0.228662 1.17786 0.568354 0 1.37275C0.068715 2.63019 0.823415 6.03877 4.39194 9.60768Z"
      fill="currentColor" />
  </symbol>



</svg>
